<?xml version="1.0" encoding="UTF-8"?>
<svg id="Layer_2" data-name="Layer 2" xmlns="http://www.w3.org/2000/svg" viewBox="0 0 274.86 40">
  <defs>
    <style>
      .cls-1 {
        fill: #22429a;
      }

      .cls-1, .cls-2 {
        stroke-width: 0px;
      }

      .cls-2 {
        fill: #fff;
      }
    </style>
  </defs>
  <g id="Layer_1-2" data-name="Layer 1">
    <g>
      <g>
        <path class="cls-2" d="m19.06,0v15.41H7.55V0L0,6.08v33.93h7.55v-16.7h11.52v16.7l7.55-6.07V0h-7.55Z"/>
        <path class="cls-2" d="m97.53,18.8v-.24c2.86-1.23,4.62-5.05,4.62-8.64C102.15,2.28,96.5,0,89.24,0h-11.98v33.93h7.91l-7.91,6.07h12.98c7.61,0,13.63-3.65,13.63-11.78,0-5.35-2.76-8.36-6.34-9.42Zm-12.36-11.82h3.76c3.69,0,5.48,1.2,5.48,4.28,0,2.91-1.7,4.76-5.54,4.76h-3.7V6.98Zm4.42,26.04h-4.42v-10.33h4.42c4.35,0,6.54,1.43,6.54,4.94s-2.22,5.39-6.54,5.39Z"/>
        <path class="cls-2" d="m142.01,18.81v-.25c2.86-1.23,4.61-5.05,4.61-8.63C146.62,2.29,140.98,0,133.72,0h-11.98v33.93h7.91l-7.91,6.07h12.98c7.61,0,13.63-3.65,13.63-11.78,0-5.34-2.76-8.35-6.34-9.41Zm-12.36-11.82h3.76c3.69,0,5.48,1.19,5.48,4.28,0,2.91-1.7,4.76-5.54,4.76h-3.7V6.98Zm4.42,26.04h-4.42v-10.33h4.42c4.35,0,6.54,1.43,6.54,4.94s-2.23,5.39-6.54,5.39Z"/>
        <g>
          <polygon class="cls-2" points="116.54 10.44 116.54 34.26 109.06 34.26 109.06 16.52 116.54 10.44"/>
          <polygon class="cls-2" points="109.06 40 116.54 34.26 116.54 40 109.06 40"/>
          <polygon class="cls-2" points="109.06 6.08 109.06 13.4 116.54 7.33 116.54 0 109.06 6.08"/>
        </g>
        <g>
          <polygon class="cls-2" points="72.06 40 52.27 0 47.58 8.25 48.31 9.81 56.51 26.45 58.48 30.44 63.19 40 72.06 40"/>
          <polygon class="cls-2" points="55.71 31.71 45.59 11.18 31.8 40 40.15 40 44.86 31.71 55.71 31.71"/>
        </g>
      </g>
      <polygon class="cls-1" points="198.45 33.3 198.45 40 172.06 40 179.97 33.93 172.06 33.93 172.06 0 198.2 0 198.2 6.71 179.67 6.71 179.67 16.05 195.84 16.05 195.84 22.75 179.67 22.75 179.67 33.3 198.45 33.3"/>
      <path class="cls-1" d="m234.6,9.01c-1.46-2.87-3.59-5.12-6.3-6.68-2.69-1.55-5.81-2.33-9.28-2.33h-11.88v33.93h7.91l-7.91,6.07h11.69c3.56-.04,6.74-.83,9.44-2.35,2.75-1.54,4.89-3.77,6.36-6.65,1.45-2.83,2.19-6.15,2.19-9.87v-2.39c-.02-3.63-.77-6.91-2.22-9.73Zm-5.33,12c0,4-.96,7.09-2.83,9.19-1.86,2.08-4.43,3.1-7.86,3.1h-3.83V6.71h4.39c3.27.03,5.71,1.04,7.45,3.11,1.77,2.09,2.68,5.12,2.68,9.01v2.18Z"/>
      <path class="cls-1" d="m274.86,0v26.37c-.02,2.9-.73,5.43-2.12,7.56h-5.79v4.78c-1.61.68-3.42,1.09-5.41,1.23l-1.34.06h-.01c-4.38,0-7.94-1.22-10.57-3.61-2.67-2.43-4.04-5.77-4.08-9.95V6.07l7.46-5.72v25.92c0,2.32.59,4.05,1.82,5.28,1.21,1.23,2.96,1.82,5.33,1.82s4.18-.61,5.37-1.81c1.22-1.22,1.81-2.94,1.81-5.26V0h7.53Z"/>
      <path class="cls-1" d="m166.72,34.86c0,2.84-2.3,5.14-5.13,5.14-1.32,0-2.52-.5-3.43-1.31l6.2-4.76h-7.83c.44-2.38,2.54-4.2,5.06-4.2,2.83,0,5.13,2.3,5.13,5.13Z"/>
    </g>
  </g>
</svg>