<?xml version="1.0" encoding="UTF-8"?>
<svg id="Layer_2" data-name="Layer 2" xmlns="http://www.w3.org/2000/svg" viewBox="0 0 305 60">
  <defs>
    <style>
      .cls-1 {
        fill: #22429a;
      }

      .cls-1, .cls-2, .cls-3 {
        stroke-width: 0px;
      }

      .cls-2 {
        fill: #fff;
      }

      .cls-3 {
        fill: #24262a;
      }
    </style>
  </defs>
  <g id="Layer_1-2" data-name="Layer 1">
    <rect class="cls-3" width="305" height="60"/>
    <g>
      <g>
        <path class="cls-2" d="m34.14,10v15.41h-11.52v-15.41l-7.55,6.07v33.93h7.55v-16.7h11.52v16.7l7.55-6.07V10h-7.55Z"/>
        <path class="cls-2" d="m112.6,28.8v-.24c2.86-1.23,4.62-5.05,4.62-8.64,0-7.64-5.65-9.92-12.91-9.92h-11.98v33.93h7.91l-7.91,6.07h12.98c7.61,0,13.63-3.65,13.63-11.78,0-5.35-2.76-8.36-6.34-9.42Zm-12.36-11.82h3.76c3.69,0,5.48,1.2,5.48,4.28,0,2.91-1.7,4.76-5.54,4.76h-3.7v-9.04Zm4.42,26.04h-4.42v-10.33h4.42c4.35,0,6.54,1.43,6.54,4.94s-2.22,5.39-6.54,5.39Z"/>
        <path class="cls-2" d="m157.08,28.81v-.25c2.86-1.23,4.61-5.05,4.61-8.63,0-7.64-5.64-9.92-12.91-9.92h-11.98v33.93h7.91l-7.91,6.07h12.98c7.61,0,13.63-3.65,13.63-11.78,0-5.34-2.76-8.35-6.34-9.41Zm-12.36-11.82h3.76c3.69,0,5.48,1.19,5.48,4.28,0,2.91-1.7,4.76-5.54,4.76h-3.7v-9.04Zm4.42,26.04h-4.42v-10.33h4.42c4.35,0,6.54,1.43,6.54,4.94s-2.23,5.39-6.54,5.39Z"/>
        <g>
          <polygon class="cls-2" points="131.62 20.44 131.62 44.26 124.13 44.26 124.13 26.51 131.62 20.44"/>
          <polygon class="cls-2" points="124.13 50 131.62 44.26 131.62 50 124.13 50"/>
          <polygon class="cls-2" points="124.13 16.08 124.13 23.4 131.62 17.33 131.62 10 124.13 16.08"/>
        </g>
        <g>
          <polygon class="cls-2" points="87.13 50 67.34 10 62.65 18.24 63.38 19.81 71.59 36.45 73.55 40.44 78.26 50 87.13 50"/>
          <polygon class="cls-2" points="70.78 41.71 60.66 21.18 46.88 50 55.22 50 59.93 41.71 70.78 41.71"/>
        </g>
      </g>
      <polygon class="cls-1" points="213.52 43.3 213.52 50 187.13 50 195.04 43.93 187.13 43.93 187.13 10 213.27 10 213.27 16.71 194.74 16.71 194.74 26.05 210.91 26.05 210.91 32.75 194.74 32.75 194.74 43.3 213.52 43.3"/>
      <path class="cls-1" d="m249.67,19.01c-1.46-2.87-3.59-5.12-6.3-6.68-2.69-1.55-5.81-2.33-9.28-2.33h-11.88v33.93h7.91l-7.91,6.07h11.69c3.56-.04,6.74-.83,9.44-2.35,2.75-1.54,4.89-3.77,6.36-6.65,1.45-2.83,2.19-6.15,2.19-9.87v-2.39c-.02-3.63-.77-6.91-2.22-9.73Zm-5.33,12c0,4-.96,7.09-2.83,9.19-1.86,2.08-4.43,3.1-7.86,3.1h-3.83v-26.59h4.39c3.27.03,5.71,1.04,7.45,3.11,1.77,2.09,2.68,5.12,2.68,9.01v2.18Z"/>
      <path class="cls-1" d="m289.93,10v26.37c-.02,2.9-.73,5.43-2.12,7.56h-5.79v4.78c-1.61.68-3.42,1.09-5.41,1.23l-1.34.06h-.01c-4.38,0-7.94-1.22-10.57-3.61-2.67-2.43-4.04-5.77-4.08-9.95v-20.37l7.46-5.72v25.92c0,2.32.59,4.05,1.82,5.28,1.21,1.23,2.96,1.82,5.33,1.82s4.18-.61,5.37-1.81c1.22-1.22,1.81-2.94,1.81-5.26V10h7.53Z"/>
      <path class="cls-1" d="m181.79,44.86c0,2.84-2.3,5.14-5.13,5.14-1.32,0-2.52-.5-3.43-1.31l6.2-4.76h-7.83c.44-2.38,2.54-4.2,5.06-4.2,2.83,0,5.13,2.3,5.13,5.13Z"/>
    </g>
  </g>
</svg>